<?xml version="1.0" encoding="UTF-8" standalone="no"?>
<svg width="200px" height="200px" viewBox="0 0 784 787" version="1.1" xmlns="http://www.w3.org/2000/svg" xmlns:xlink="http://www.w3.org/1999/xlink" xmlns:sketch="http://www.bohemiancoding.com/sketch/ns">
    <!-- Generator: Sketch 3.4.2 (15855) - http://www.bohemiancoding.com/sketch -->
    <title>prkr-car</title>
    <desc>Created with Sketch.</desc>
    <defs></defs>
    <g id="Page-1" stroke="none" stroke-width="1" fill="none" fill-rule="evenodd" sketch:type="MSPage">
        <g id="iTunesArtwork@2x" sketch:type="MSArtboardGroup" transform="translate(-120.000000, -120.000000)">
            <g id="app-icon" sketch:type="MSLayerGroup" transform="translate(-2.000000, -2.000000)">
                <g id="prkr-car" transform="translate(122.000000, 122.357073)" sketch:type="MSShapeGroup">
                    <ellipse id="Oval-13" fill="#15A8E2" cx="392" cy="393.147317" rx="392" ry="393.147317"></ellipse>
                    <g id="car-+-Line" transform="translate(80.000000, 200.585366)">
                        <g id="car" fill="#FFFFFF">
                            <path d="M468.713833,281.145879 C455.220605,281.145879 444.275892,270.228849 444.275892,256.762869 C444.275892,243.293806 455.220605,232.376776 468.713833,232.376776 C482.21015,232.376776 493.151773,243.293806 493.151773,256.762869 C493.151773,270.228849 482.21015,281.145879 468.713833,281.145879 L468.713833,281.145879 Z M177.451021,107.364149 C177.451021,107.364149 181.794308,33.2349893 188.312328,27.452847 C194.830348,21.6737869 215.10108,23.1193225 215.10108,23.1193225 L405.541556,23.1193225 C405.541556,23.1193225 425.815377,21.6737869 432.330308,27.452847 C438.848328,33.2349893 443.194704,107.364149 443.194704,107.364149 L177.451021,107.364149 L177.451021,107.364149 Z M138.528249,281.145879 C125.031932,281.145879 114.090308,270.228849 114.090308,256.762869 C114.090308,243.293806 125.031932,232.376776 138.528249,232.376776 C152.027655,232.376776 162.969278,243.293806 162.969278,256.762869 C162.969278,270.228849 152.027655,281.145879 138.528249,281.145879 L138.528249,281.145879 Z M544.962308,296.189928 C544.236368,292.935162 541.295536,292.765643 541.295536,292.765643 L533.353437,292.454344 C533.353437,292.454344 538.104486,197.230845 533.761199,153.886353 C529.417912,110.535697 470.761912,132.209484 470.761912,132.209484 C470.761912,132.209484 466.242546,30.4949442 451.214031,13.0036557 C440.624566,0.678076383 425.14813,0 425.14813,0 L193.378467,0 C193.378467,0 177.902031,0.678076383 167.312566,13.0036557 C152.284051,30.4949442 147.764684,132.209484 147.764684,132.209484 C147.764684,132.209484 89.1086844,110.535697 84.7653972,153.886353 C80.4221101,197.230845 85.1731596,292.454344 85.1731596,292.454344 L77.2310606,292.765643 C77.2310606,292.765643 74.2902289,292.935162 73.5642883,296.189928 C72.8414368,299.438531 73.5426646,309.939468 73.5426646,309.939468 C73.5426646,309.939468 73.1812388,313.912379 74.9914566,316.800368 C76.7985854,319.691439 89.1086844,320.412666 89.1086844,320.412666 L105.267813,320.230818 L106.488011,379.294354 C106.488011,379.294354 110.837476,393.022318 133.282942,391.576783 C155.728407,390.128165 155.005556,376.403282 155.005556,376.403282 L156.043496,321.04451 L462.4831,321.04451 L463.52413,376.403282 C463.52413,376.403282 462.798189,390.128165 485.243655,391.576783 C507.68912,393.022318 512.038585,379.294354 512.038585,379.294354 L513.258783,320.230818 L529.417912,320.412666 C529.417912,320.412666 541.728011,319.691439 543.53514,316.800368 C545.345358,313.912379 544.987021,309.939468 544.987021,309.939468 C544.987021,309.939468 545.68516,299.438531 544.962308,296.189928 L544.962308,296.189928 Z"></path>
                            <path d="M24.6120614,133.535004 C24.6677372,130.146416 27.4547195,127.399422 30.8485516,127.399422 L46.3791712,127.399422 C49.7678138,127.399422 52.5601609,130.157081 52.6156614,133.535004 L58.5922594,497.288017 C58.6479352,500.676605 55.9328188,503.423598 52.5501558,503.423598 L24.6775669,503.423598 C21.2849295,503.423598 18.5799628,500.66594 18.6354634,497.288017 L24.6120614,133.535004 Z" id="Rectangle-50" transform="translate(38.613861, 315.411510) rotate(5.000000) translate(-38.613861, -315.411510) "></path>
                            <path d="M571.384339,133.535004 C571.440014,130.146416 574.226997,127.399422 577.620829,127.399422 L593.151448,127.399422 C596.540091,127.399422 599.332438,130.157081 599.387939,133.535004 L605.364537,497.288017 C605.420212,500.676605 602.705096,503.423598 599.322433,503.423598 L571.449844,503.423598 C568.057207,503.423598 565.35224,500.66594 565.407741,497.288017 L571.384339,133.535004 Z" id="Rectangle-50-Copy" transform="translate(585.386139, 315.411510) scale(-1, 1) rotate(5.000000) translate(-585.386139, -315.411510) "></path>
                        </g>
                        <path d="M234.804124,278.331238 C234.804124,278.331238 256.725918,299.335424 312,299.335424 C367.274082,299.335424 389.195876,278.331238 389.195876,278.331238" id="Line" stroke="#15A8E2" stroke-width="6.4" stroke-linecap="square"></path>
                    </g>
                </g>
            </g>
        </g>
    </g>
</svg>