<?xml version="1.0" encoding="UTF-8" standalone="no"?>
<svg width="300px" height="300px" viewBox="0 0 180 180" version="1.1" xmlns="http://www.w3.org/2000/svg" xmlns:xlink="http://www.w3.org/1999/xlink" xmlns:sketch="http://www.bohemiancoding.com/sketch/ns">
    <!-- Generator: Sketch 3.4.2 (15855) - http://www.bohemiancoding.com/sketch -->
    <title>app-icon</title>
    <desc>Created with Sketch.</desc>
    <defs></defs>
    <g id="Page-1" stroke="none" stroke-width="1" fill="none" fill-rule="evenodd" sketch:type="MSPage">
        <g id="Icon-60@3x" sketch:type="MSArtboardGroup">
            <g id="app-icon" sketch:type="MSLayerGroup">
                <rect id="Rectangle-136" fill="#9EC9DA" sketch:type="MSShapeGroup" x="0" y="0" width="180" height="180"></rect>
                <g id="prkr-car" transform="translate(21.361868, 21.424390)" sketch:type="MSShapeGroup">
                    <ellipse id="Oval-13" fill="#15A8E2" cx="68.6381323" cy="68.8390244" rx="68.6381323" ry="68.8390244"></ellipse>
                    <g id="car-+-Line" transform="translate(14.007782, 35.121951)">
                        <g id="car" fill="#FFFFFF">
                            <path d="M82.0705155,49.2278777 C79.7078881,49.2278777 77.7914986,47.3163355 77.7914986,44.958479 C77.7914986,42.6000828 79.7078881,40.6885406 82.0705155,40.6885406 C84.4336838,40.6885406 86.3495323,42.6000828 86.3495323,44.958479 C86.3495323,47.3163355 84.4336838,49.2278777 82.0705155,49.2278777 L82.0705155,49.2278777 Z M31.0711904,18.79917 C31.0711904,18.79917 31.8316882,5.8193561 32.9729757,4.80691874 C34.1142632,3.79502106 37.6636133,4.0481304 37.6636133,4.0481304 L71.0092218,4.0481304 C71.0092218,4.0481304 74.5591128,3.79502106 75.6998594,4.80691874 C76.8411469,5.8193561 77.6021856,18.79917 77.6021856,18.79917 L31.0711904,18.79917 L31.0711904,18.79917 Z M24.255919,49.2278777 C21.8927507,49.2278777 19.9769022,47.3163355 19.9769022,44.958479 C19.9769022,42.6000828 21.8927507,40.6885406 24.255919,40.6885406 C26.6196282,40.6885406 28.5354768,42.6000828 28.5354768,44.958479 C28.5354768,47.3163355 26.6196282,49.2278777 24.255919,49.2278777 L24.255919,49.2278777 Z M95.4214158,51.8620497 C95.2943056,51.292149 94.779374,51.2624666 94.779374,51.2624666 L93.3887341,51.2079591 C93.3887341,51.2079591 94.2206299,34.5345837 93.4601322,26.9450813 C92.6996344,19.3544995 82.4291286,23.1495205 82.4291286,23.1495205 C82.4291286,23.1495205 81.6377998,5.33958168 79.0063478,2.2769047 C77.1521613,0.118729328 74.4422796,0 74.4422796,0 L33.8600428,0 C33.8600428,0 31.1501611,0.118729328 29.2959745,2.2769047 C26.6645225,5.33958168 25.8731938,23.1495205 25.8731938,23.1495205 C25.8731938,23.1495205 15.6026879,19.3544995 14.8421902,26.9450813 C14.0816924,34.5345837 14.9135883,51.2079591 14.9135883,51.2079591 L13.5229484,51.2624666 C13.5229484,51.2624666 13.0080167,51.292149 12.8809065,51.8620497 C12.7543372,52.4308711 12.8771203,54.2695567 12.8771203,54.2695567 C12.8771203,54.2695567 12.8138356,54.9652026 13.1307998,55.4708816 C13.4472231,55.9771003 15.6026879,56.1033851 15.6026879,56.1033851 L18.4321073,56.0715441 L18.6457607,66.4134082 C18.6457607,66.4134082 19.4073402,68.8171374 23.3374801,68.5640281 C27.2676199,68.3103791 27.1410506,65.9071895 27.1410506,65.9071895 L27.3227912,56.2140193 L80.9795312,56.2140193 L81.1618126,65.9071895 C81.1618126,65.9071895 81.0347024,68.3103791 84.9648423,68.5640281 C88.8949821,68.8171374 89.6565616,66.4134082 89.6565616,66.4134082 L89.870215,56.0715441 L92.6996344,56.1033851 C92.6996344,56.1033851 94.8550992,55.9771003 95.1715225,55.4708816 C95.4884867,54.9652026 95.425743,54.2695567 95.425743,54.2695567 C95.425743,54.2695567 95.5479851,52.4308711 95.4214158,51.8620497 L95.4214158,51.8620497 Z"></path>
                            <path d="M4.30950491,23.3816155 C4.31925359,22.7882829 4.81172106,22.3072919 5.40753475,22.3072919 L8.11482916,22.3072919 C8.71150562,22.3072919 9.20299032,22.7809795 9.212859,23.3816155 L10.259345,87.0737773 C10.2690937,87.6671098 9.79368422,88.1481009 9.20904344,88.1481009 L4.31332047,88.1481009 C3.72350624,88.1481009 3.2531502,87.6744132 3.26301888,87.0737773 L4.30950491,23.3816155 Z" id="Rectangle-50" transform="translate(6.761182, 55.227696) rotate(5.000000) translate(-6.761182, -55.227696) "></path>
                            <path d="M100.047841,23.3816155 C100.05759,22.7882829 100.550058,22.3072919 101.145871,22.3072919 L103.853166,22.3072919 C104.449842,22.3072919 104.941327,22.7809795 104.951195,23.3816155 L105.997682,87.0737773 C106.00743,87.6671098 105.532021,88.1481009 104.94738,88.1481009 L100.051657,88.1481009 C99.4618427,88.1481009 98.9914867,87.6744132 99.0013554,87.0737773 L100.047841,23.3816155 Z" id="Rectangle-50-Copy" transform="translate(102.499518, 55.227696) scale(-1, 1) rotate(5.000000) translate(-102.499518, -55.227696) "></path>
                        </g>
                        <path d="M41.1135625,48.7350417 C41.1135625,48.7350417 44.952009,52.4128174 54.6303502,52.4128174 C64.3086914,52.4128174 68.1471379,48.7350417 68.1471379,48.7350417" id="Line" stroke="#15A8E2" stroke-width="1.12062257" stroke-linecap="square"></path>
                    </g>
                </g>
            </g>
        </g>
    </g>
</svg>